# xmcd
#
# Track frame offsets: 
#        150
#        14108
#        26291
#        37712
#        50935
#        64455
#        77172
#        104134
#        118303
#        130865
#        144251
#        158167
#        170863
#        181639
#        193119
#        206020
#        216243
#        227043
#        243464
#        258068
#        271675
#        284998
#
# Disc length: 4100 seconds
#
# Revision: 0
# Processed by: cddbd v1.5.1PL2 Copyright (c) Steve Scherf et al.
# Submitted via: ExactAudioCopy v0.95b3
#
DISCID=51100216
DTITLE=Jimmy Witherspoon - California Blues Disc 1
DYEAR=1900
DGENRE=Blues
TTITLE0=Roll On Katy
TTITLE1=Gone With The Blues
TTITLE2=Bar Fly Blues
TTITLE3=Please Stop Playing These Blues, Boy
TTITLE4=Christmas Blues
TTITLE5=Cain River Blues
TTITLE6=Ain't Nobody's Business
TTITLE7=Back Water Blues
TTITLE8=Frogimore Blues
TTITLE9=In The Evening
TTITLE10=Early Morning Blues
TTITLE11=Money Eyes Woman
TTITLE12=Call My Baby
TTITLE13=Sweet Loving Baby
TTITLE14=Jump Children
TTITLE15=Doctor Blues
TTITLE16=Big Fine Girl
TTITLE17=No Rollin' Blues
TTITLE18=I'm Goin' Around In Circles
TTITLE19=I'm Just A Country Boy
TTITLE20=There Ain't Nothing Better
TTITLE21=I'm Just Wondering
EXTD=
EXTT0=
EXTT1=
EXTT2=
EXTT3=
EXTT4=
EXTT5=
EXTT6=
EXTT7=
EXTT8=
EXTT9=
EXTT10=
EXTT11=
EXTT12=
EXTT13=
EXTT14=
EXTT15=
EXTT16=
EXTT17=
EXTT18=
EXTT19=
EXTT20=
EXTT21=
PLAYORDER=
